<?xml version="1.0" encoding="UTF-8" standalone="no" ?>
<!DOCTYPE svg PUBLIC "-//W3C//DTD SVG 1.1//EN" "http://www.w3.org/Graphics/SVG/1.1/DTD/svg11.dtd">
<svg xmlns="http://www.w3.org/2000/svg" xmlns:xlink="http://www.w3.org/1999/xlink" version="1.1" width="1080" height="1080" viewBox="0 0 1080 1080" xml:space="preserve">
<desc>Created with Fabric.js 5.2.4</desc>
<defs>
</defs>
<g transform="matrix(1 0 0 1 540 540)" id="993b0817-2720-4a17-b860-63b6ef6b2218"  >
</g>
<g transform="matrix(1 0 0 1 540 540)" id="dbf1fca3-ca15-4612-b4cf-670691ed8c6a"  >
<rect style="stroke: none; stroke-width: 1; stroke-dasharray: none; stroke-linecap: butt; stroke-dashoffset: 0; stroke-linejoin: miter; stroke-miterlimit: 4; fill: rgb(255,255,255); fill-rule: nonzero; opacity: 1; visibility: hidden;" vector-effect="non-scaling-stroke"  x="-540" y="-540" rx="0" ry="0" width="1080" height="1080" />
</g>
<g transform="matrix(0.79 0 0 0.79 540 540)"  >
<path style="stroke: none; stroke-width: 1; stroke-dasharray: none; stroke-linecap: butt; stroke-dashoffset: 0; stroke-linejoin: miter; stroke-miterlimit: 4; fill: rgb(255,255,255); fill-rule: nonzero; opacity: 1;" vector-effect="non-scaling-stroke"  transform=" translate(-505, -504.99)" d="M 505 771.9033 C 357.83299999999997 771.9033 238.0967 652.1669999999999 238.0967 504.99999999999994 C 238.0967 357.81589999999994 357.83299999999997 238.07029999999992 505 238.07029999999992 C 652.167 238.07029999999992 771.9043 357.8159 771.9043 505 C 771.9043 652.167 652.167 771.9033 505 771.9033 L 505 771.9033 z M 505 274.2925 C 377.7979 274.2925 274.30129999999997 377.7891 274.30129999999997 505 C 274.30129999999997 632.2021 377.79789999999997 735.6992 505 735.6992 C 632.2031 735.6992 735.6992 632.2021 735.6992 505 C 735.6992 377.7891 632.2031 274.2925 505 274.2925 L 505 274.2925 z" stroke-linecap="round" />
</g>
<g transform="matrix(0.79 0 0 0.79 539.96 272.97)"  >
<path style="stroke: none; stroke-width: 1; stroke-dasharray: none; stroke-linecap: butt; stroke-dashoffset: 0; stroke-linejoin: miter; stroke-miterlimit: 4; fill: rgb(255,255,255); fill-rule: nonzero; opacity: 1;" vector-effect="non-scaling-stroke"  transform=" translate(-505, -167.96)" d="M 505 201.1089 C 496.0044 201.1089 488.6919 193.8135 488.6919 184.8086 L 488.6919 151.1035 C 488.6919 142.0991 496.0044 134.8037 505 134.8037 C 513.9961 134.8037 521.3086 142.0991 521.3086 151.1035 L 521.3086 184.8086 C 521.3086 193.8135 513.9961 201.1089 505 201.1089 L 505 201.1089 z" stroke-linecap="round" />
</g>
<g transform="matrix(0.79 0 0 0.79 539.96 186.16)"  >
<path style="stroke: none; stroke-width: 1; stroke-dasharray: none; stroke-linecap: butt; stroke-dashoffset: 0; stroke-linejoin: miter; stroke-miterlimit: 4; fill: rgb(255,255,255); fill-rule: nonzero; opacity: 1;" vector-effect="non-scaling-stroke"  transform=" translate(-505, -58.43)" d="M 505 116.854 C 496.0044 116.854 488.6919 109.5586 488.6919 100.563 L 488.6919 16.291 C 488.6919 7.2954 496.0044 0 505 0 C 513.9961 0 521.3086 7.2954 521.3086 16.291 L 521.3086 100.563 C 521.3086 109.5586 513.9961 116.854 505 116.854 L 505 116.854 z" stroke-linecap="round" />
</g>
<g transform="matrix(0.79 0 0 0.79 539.96 806.89)"  >
<path style="stroke: none; stroke-width: 1; stroke-dasharray: none; stroke-linecap: butt; stroke-dashoffset: 0; stroke-linejoin: miter; stroke-miterlimit: 4; fill: rgb(255,255,255); fill-rule: nonzero; opacity: 1;" vector-effect="non-scaling-stroke"  transform=" translate(-505, -842.03)" d="M 505 875.1787 C 496.0044 875.1787 488.6919 867.8838000000001 488.6919 858.8877 L 488.6919 825.1826 C 488.6919 816.1865 496.0044 808.8906 505 808.8906 C 513.9961 808.8906 521.3086 816.1864999999999 521.3086 825.1826 L 521.3086 858.8877 C 521.3086 867.8838 513.9961 875.1787 505 875.1787 L 505 875.1787 z" stroke-linecap="round" />
</g>
<g transform="matrix(0.79 0 0 0.79 539.96 893.6)"  >
<path style="stroke: none; stroke-width: 1; stroke-dasharray: none; stroke-linecap: butt; stroke-dashoffset: 0; stroke-linejoin: miter; stroke-miterlimit: 4; fill: rgb(255,255,255); fill-rule: nonzero; opacity: 1;" vector-effect="non-scaling-stroke"  transform=" translate(-505, -951.57)" d="M 505 1010 C 496.0044 1010 488.6919 1002.7041 488.6919 993.709 L 488.6919 909.4286999999999 C 488.6919 900.4326 496.0044 893.1366999999999 505 893.1366999999999 C 513.9961 893.1366999999999 521.3086 900.4325999999999 521.3086 909.4286999999999 L 521.3086 993.709 C 521.3086 1002.7041 513.9961 1010 505 1010 L 505 1010 z" stroke-linecap="round" />
</g>
<g transform="matrix(0.79 0 0 0.79 806.91 539.97)"  >
<path style="stroke: none; stroke-width: 1; stroke-dasharray: none; stroke-linecap: butt; stroke-dashoffset: 0; stroke-linejoin: miter; stroke-miterlimit: 4; fill: rgb(255,255,255); fill-rule: nonzero; opacity: 1;" vector-effect="non-scaling-stroke"  transform=" translate(-842.06, -505)" d="M 858.9219 521.291 L 825.2168 521.291 C 816.2031000000001 521.291 808.9082000000001 514.0039 808.9082000000001 505.00000000000006 C 808.9082000000001 495.99510000000004 816.2031000000001 488.7085000000001 825.2168 488.7085000000001 L 858.9219 488.7085000000001 C 867.9181000000001 488.7085000000001 875.2129000000001 495.9951000000001 875.2129000000001 505.00000000000006 C 875.2129 514.0039 867.918 521.291 858.9219 521.291 L 858.9219 521.291 z" stroke-linecap="round" />
</g>
<g transform="matrix(0.79 0 0 0.79 893.59 539.97)"  >
<path style="stroke: none; stroke-width: 1; stroke-dasharray: none; stroke-linecap: butt; stroke-dashoffset: 0; stroke-linejoin: miter; stroke-miterlimit: 4; fill: rgb(255,255,255); fill-rule: nonzero; opacity: 1;" vector-effect="non-scaling-stroke"  transform=" translate(-951.57, -505)" d="M 993.709 521.291 L 909.4453 521.291 C 900.4325 521.291 893.1365999999999 514.0039 893.1365999999999 505.00000000000006 C 893.1365999999999 495.99510000000004 900.4324999999999 488.7085000000001 909.4453 488.7085000000001 L 993.709 488.7085000000001 C 1002.7050999999999 488.7085000000001 1010 495.9951000000001 1010 505.00000000000006 C 1010 514.0039 1002.7051 521.291 993.709 521.291 L 993.709 521.291 z" stroke-linecap="round" />
</g>
<g transform="matrix(0.79 0 0 0.79 272.97 539.97)"  >
<path style="stroke: none; stroke-width: 1; stroke-dasharray: none; stroke-linecap: butt; stroke-dashoffset: 0; stroke-linejoin: miter; stroke-miterlimit: 4; fill: rgb(255,255,255); fill-rule: nonzero; opacity: 1;" vector-effect="non-scaling-stroke"  transform=" translate(-167.96, -505)" d="M 184.7837 521.291 L 151.1123 521.291 C 142.1162 521.291 134.8213 514.0039 134.8213 505.00000000000006 C 134.8213 495.99510000000004 142.11620000000002 488.7085000000001 151.1123 488.7085000000001 L 184.7837 488.7085000000001 C 193.79690000000002 488.7085000000001 201.0918 495.9951000000001 201.0918 505.00000000000006 C 201.0918 514.0039 193.7969 521.291 184.7837 521.291 L 184.7837 521.291 z" stroke-linecap="round" />
</g>
<g transform="matrix(0.79 0 0 0.79 186.16 539.97)"  >
<path style="stroke: none; stroke-width: 1; stroke-dasharray: none; stroke-linecap: butt; stroke-dashoffset: 0; stroke-linejoin: miter; stroke-miterlimit: 4; fill: rgb(255,255,255); fill-rule: nonzero; opacity: 1;" vector-effect="non-scaling-stroke"  transform=" translate(-58.43, -505)" d="M 100.5547 521.291 L 16.2915 521.291 C 7.2959 521.291 0 514.0039 0 505 C 0 495.9951 7.2959 488.7085 16.2915 488.7085 L 100.5547 488.7085 C 109.56739999999999 488.7085 116.8633 495.99510000000004 116.8633 505 C 116.8633 514.0039 109.5674 521.291 100.5547 521.291 L 100.5547 521.291 z" stroke-linecap="round" />
</g>
<g transform="matrix(0.79 0 0 0.79 728.7 351.16)"  >
<path style="stroke: none; stroke-width: 1; stroke-dasharray: none; stroke-linecap: butt; stroke-dashoffset: 0; stroke-linejoin: miter; stroke-miterlimit: 4; fill: rgb(255,255,255); fill-rule: nonzero; opacity: 1;" vector-effect="non-scaling-stroke"  transform=" translate(-743.32, -266.66)" d="M 731.4141 294.8862 C 727.2305 294.8862 723.0801 293.30469999999997 719.9004 290.125 C 713.5409999999999 283.7734 713.5234 273.4507 719.8838 267.0737 L 743.6913999999999 243.2231 C 750.0518 236.8374 760.3574 236.84619999999998 766.7343999999999 243.1978 C 773.0938 249.5493 773.1112999999999 259.8716 766.752 266.2402 L 742.9432999999999 290.0991 C 739.7637 293.2964 735.5801 294.8862 731.4141 294.8862 L 731.4141 294.8862 z" stroke-linecap="round" />
</g>
<g transform="matrix(0.79 0 0 0.79 790.04 289.77)"  >
<path style="stroke: none; stroke-width: 1; stroke-dasharray: none; stroke-linecap: butt; stroke-dashoffset: 0; stroke-linejoin: miter; stroke-miterlimit: 4; fill: rgb(255,255,255); fill-rule: nonzero; opacity: 1;" vector-effect="non-scaling-stroke"  transform=" translate(-820.8, -189.21)" d="M 791.002 235.3071 C 786.8349999999999 235.3071 782.668 233.7173 779.4716999999999 230.5283 C 773.1112999999999 224.17680000000001 773.1112999999999 213.8462 779.4716999999999 207.4858 L 839.0762 147.8896 C 845.4365 141.5293 855.7588 141.5293 862.1356999999999 147.8896 C 868.4961 154.2495 868.4961 164.5806 862.1356999999999 170.9321 L 802.5312999999999 230.5283 C 799.3516 233.7173 795.1846 235.3071 791.002 235.3071 L 791.002 235.3071 z" stroke-linecap="round" />
</g>
<g transform="matrix(0.79 0 0 0.79 351.16 728.73)"  >
<path style="stroke: none; stroke-width: 1; stroke-dasharray: none; stroke-linecap: butt; stroke-dashoffset: 0; stroke-linejoin: miter; stroke-miterlimit: 4; fill: rgb(255,255,255); fill-rule: nonzero; opacity: 1;" vector-effect="non-scaling-stroke"  transform=" translate(-266.67, -743.34)" d="M 254.7451 771.5635 C 250.5786 771.5635 246.4292 769.9824 243.2324 766.8018 C 236.87210000000002 760.4248 236.85500000000002 750.1191 243.21480000000003 743.7421999999999 L 267.05710000000005 719.8827999999999 C 273.41700000000003 713.5233999999998 283.7397 713.5233999999998 290.09960000000007 719.8827999999999 C 296.4600000000001 726.2440999999999 296.4766000000001 736.5663999999998 290.1167000000001 742.9433999999999 L 266.2749000000001 766.7851999999999 C 263.0947 769.9824 258.9282 771.5635 254.7451 771.5635 L 254.7451 771.5635 z" stroke-linecap="round" />
</g>
<g transform="matrix(0.79 0 0 0.79 289.78 790.03)"  >
<path style="stroke: none; stroke-width: 1; stroke-dasharray: none; stroke-linecap: butt; stroke-dashoffset: 0; stroke-linejoin: miter; stroke-miterlimit: 4; fill: rgb(255,255,255); fill-rule: nonzero; opacity: 1;" vector-effect="non-scaling-stroke"  transform=" translate(-189.21, -820.79)" d="M 159.4282 866.8799 C 155.2617 866.8799 151.0781 865.2813 147.915 862.1191 C 141.55519999999999 855.7588 141.5381 845.4189 147.89839999999998 839.0586 L 207.46919999999997 779.4707 C 213.82909999999998 773.1112999999999 224.16889999999998 773.1112999999999 230.51169999999996 779.4707 C 236.87209999999996 785.8311 236.88869999999997 796.1367 230.52879999999996 802.5137 L 170.95799999999997 862.1191 C 167.7783 865.2813 163.6113 866.8799 159.4282 866.8799 L 159.4282 866.8799 z" stroke-linecap="round" />
</g>
<g transform="matrix(0.79 0 0 0.79 728.7 728.72)"  >
<path style="stroke: none; stroke-width: 1; stroke-dasharray: none; stroke-linecap: butt; stroke-dashoffset: 0; stroke-linejoin: miter; stroke-miterlimit: 4; fill: rgb(255,255,255); fill-rule: nonzero; opacity: 1;" vector-effect="non-scaling-stroke"  transform=" translate(-743.32, -743.34)" d="M 755.2207 771.5635 C 751.0381 771.5635 746.8711 769.9824 743.6913999999999 766.7852 L 719.8838 742.9258 C 713.5233999999999 736.5488 713.5409999999999 726.2266 719.9004 719.8828 C 726.2773 713.5059 736.5996 713.5233999999999 742.9434 719.9004 L 766.7521 743.7598 C 773.1114 750.1191 773.0939000000001 760.4590000000001 766.7345 766.8018000000001 C 763.5371 769.9824 759.3711 771.5635 755.2207 771.5635 L 755.2207 771.5635 z" stroke-linecap="round" />
</g>
<g transform="matrix(0.79 0 0 0.79 790.04 790.03)"  >
<path style="stroke: none; stroke-width: 1; stroke-dasharray: none; stroke-linecap: butt; stroke-dashoffset: 0; stroke-linejoin: miter; stroke-miterlimit: 4; fill: rgb(255,255,255); fill-rule: nonzero; opacity: 1;" vector-effect="non-scaling-stroke"  transform=" translate(-820.8, -820.79)" d="M 850.6055 866.8799 C 846.4229 866.8799 842.2559 865.2813 839.0762 862.1191 L 779.4716999999999 802.5137 C 773.1112999999999 796.1542999999999 773.1112999999999 785.8311 779.4716999999999 779.4707 C 785.8485999999999 773.1112999999999 796.1709 773.1112999999999 802.5313 779.4707 L 862.1357 839.0586 C 868.4961000000001 845.4189 868.4961000000001 855.7588 862.1357 862.1191 C 858.9561 865.2813 854.7725 866.8799 850.6055 866.8799 L 850.6055 866.8799 z" stroke-linecap="round" />
</g>
<g transform="matrix(0.79 0 0 0.79 351.16 351.16)"  >
<path style="stroke: none; stroke-width: 1; stroke-dasharray: none; stroke-linecap: butt; stroke-dashoffset: 0; stroke-linejoin: miter; stroke-miterlimit: 4; fill: rgb(255,255,255); fill-rule: nonzero; opacity: 1;" vector-effect="non-scaling-stroke"  transform=" translate(-266.67, -266.66)" d="M 278.5869 294.8862 C 274.42040000000003 294.8862 270.2368 293.29639999999995 267.0571 290.1079 L 243.2148 266.2573 C 236.855 259.8887 236.8721 249.5664 243.23239999999998 243.19779999999997 C 249.6094 236.85449999999997 259.9145 236.84619999999998 266.2749 243.21479999999997 L 290.1167 267.06539999999995 C 296.47659999999996 273.43359999999996 296.46 283.75629999999995 290.09959999999995 290.11619999999994 C 286.9194 293.2964 282.77 294.8862 278.5869 294.8862 L 278.5869 294.8862 z" stroke-linecap="round" />
</g>
<g transform="matrix(0.79 0 0 0.79 289.78 289.77)"  >
<path style="stroke: none; stroke-width: 1; stroke-dasharray: none; stroke-linecap: butt; stroke-dashoffset: 0; stroke-linejoin: miter; stroke-miterlimit: 4; fill: rgb(255,255,255); fill-rule: nonzero; opacity: 1;" vector-effect="non-scaling-stroke"  transform=" translate(-189.21, -189.21)" d="M 218.999 235.3071 C 214.81539999999998 235.3071 210.64939999999999 233.7173 207.4692 230.5283 L 147.8984 170.9321 C 141.53810000000001 164.57229999999998 141.5552 154.24949999999998 147.91500000000002 147.8809 C 154.2588 141.5381 164.59770000000003 141.5293 170.95800000000003 147.8896 L 230.52880000000002 207.4858 C 236.88870000000003 213.8545 236.87210000000002 224.17680000000001 230.51170000000002 230.5371 C 227.332 233.7173 223.165 235.3071 218.999 235.3071 L 218.999 235.3071 z" stroke-linecap="round" />
</g>
<g transform="matrix(0.79 0 0 0.79 644.27 294.2)"  >
<path style="stroke: none; stroke-width: 1; stroke-dasharray: none; stroke-linecap: butt; stroke-dashoffset: 0; stroke-linejoin: miter; stroke-miterlimit: 4; fill: rgb(255,255,255); fill-rule: nonzero; opacity: 1;" vector-effect="non-scaling-stroke"  transform=" translate(-636.7, -194.76)" d="M 630.1113 226.583 C 628.0020000000001 226.583 625.8418 226.16649999999998 623.75 225.2822 C 615.4688 221.7705 611.6084 212.2051 615.0947 203.91459999999998 L 628.2734 172.87939999999998 C 631.7773000000001 164.58889999999997 641.3691 160.73729999999998 649.6328000000001 164.23189999999997 C 657.9150000000001 167.74369999999996 661.7930000000001 177.30959999999996 658.2890000000001 185.59959999999995 L 645.1093000000001 216.63479999999996 C 642.4902 222.8506 636.4541 226.583 630.1113 226.583 L 630.1113 226.583 z" stroke-linecap="round" />
</g>
<g transform="matrix(0.79 0 0 0.79 678.15 214.26)"  >
<path style="stroke: none; stroke-width: 1; stroke-dasharray: none; stroke-linecap: butt; stroke-dashoffset: 0; stroke-linejoin: miter; stroke-miterlimit: 4; fill: rgb(255,255,255); fill-rule: nonzero; opacity: 1;" vector-effect="non-scaling-stroke"  transform=" translate(-679.49, -93.9)" d="M 663.0166 148.978 C 660.874 148.978 658.7148000000001 148.55270000000002 656.6396000000001 147.6685 C 648.3408000000001 144.1567 644.498 134.58249999999998 648.0176000000001 126.3008 L 680.9746000000001 48.738299999999995 C 684.4941000000001 40.439499999999995 694.1543000000001 36.621599999999994 702.3340000000002 40.11619999999999 C 710.6328000000002 43.636199999999995 714.4922000000001 53.202099999999994 710.9727000000001 61.4922 L 677.9980000000002 139.0552 C 675.3633 145.2622 669.3428 148.978 663.0166 148.978 L 663.0166 148.978 z" stroke-linecap="round" />
</g>
<g transform="matrix(0.79 0 0 0.79 435.64 785.68)"  >
<path style="stroke: none; stroke-width: 1; stroke-dasharray: none; stroke-linecap: butt; stroke-dashoffset: 0; stroke-linejoin: miter; stroke-miterlimit: 4; fill: rgb(255,255,255); fill-rule: nonzero; opacity: 1;" vector-effect="non-scaling-stroke"  transform=" translate(-373.31, -815.25)" d="M 366.7271 847.0684 C 364.6016 847.0684 362.44190000000003 846.6436 360.3672 845.7598 C 352.08540000000005 842.2559 348.208 832.6992 351.71090000000004 824.4004 L 364.89060000000006 793.3652 C 368.39360000000005 785.0663999999999 377.93410000000006 781.2402 386.24950000000007 784.709 C 394.53130000000004 788.2284999999999 398.40870000000007 797.8027 394.90580000000006 806.0849999999999 L 381.72610000000003 837.1200999999999 C 379.1074 843.3447 373.0532 847.0684 366.7271 847.0684 L 366.7271 847.0684 z" stroke-linecap="round" />
</g>
<g transform="matrix(0.79 0 0 0.79 401.7 865.51)"  >
<path style="stroke: none; stroke-width: 1; stroke-dasharray: none; stroke-linecap: butt; stroke-dashoffset: 0; stroke-linejoin: miter; stroke-miterlimit: 4; fill: rgb(255,255,255); fill-rule: nonzero; opacity: 1;" vector-effect="non-scaling-stroke"  transform=" translate(-330.49, -916.09)" d="M 314.0269 971.1758 C 311.8838 971.1758 309.7241 970.751 307.6665 969.8661999999999 C 299.3677 966.3633 295.5073 956.7891 299.02779999999996 948.5078 L 331.96779999999995 870.9277 C 335.48779999999994 862.6288999999999 345.12989999999996 858.8193 353.32669999999996 862.2891999999999 C 361.60839999999996 865.7920999999999 365.4688 875.3662999999999 361.9487 883.6484999999999 L 329.0254 961.2275999999999 C 326.3896 967.4512 320.3525 971.1758 314.0269 971.1758 L 314.0269 971.1758 z" stroke-linecap="round" />
</g>
<g transform="matrix(0.79 0 0 0.79 785.67 644.27)"  >
<path style="stroke: none; stroke-width: 1; stroke-dasharray: none; stroke-linecap: butt; stroke-dashoffset: 0; stroke-linejoin: miter; stroke-miterlimit: 4; fill: rgb(255,255,255); fill-rule: nonzero; opacity: 1;" vector-effect="non-scaling-stroke"  transform=" translate(-815.24, -636.7)" d="M 830.7607 659.5811 C 828.6172 659.5811 826.4580000000001 659.1562 824.4004 658.2891 L 793.3652 645.0917999999999 C 785.0663999999999 641.5898 781.2061 632.0156 784.7266 623.7334 C 788.2461 615.4345999999999 797.8887 611.625 806.0858999999999 615.0937 L 837.1211 628.2568 C 845.4199 631.7939 849.2792999999999 641.3516 845.7597999999999 649.6504 C 843.123 655.8398 837.0859 659.5811 830.7607 659.5811 L 830.7607 659.5811 z" stroke-linecap="round" />
</g>
<g transform="matrix(0.79 0 0 0.79 865.5 678.15)"  >
<path style="stroke: none; stroke-width: 1; stroke-dasharray: none; stroke-linecap: butt; stroke-dashoffset: 0; stroke-linejoin: miter; stroke-miterlimit: 4; fill: rgb(255,255,255); fill-rule: nonzero; opacity: 1;" vector-effect="non-scaling-stroke"  transform=" translate(-916.09, -679.5)" d="M 954.8672 712.2646 C 952.7246 712.2646 950.5654000000001 711.8564 948.5078 710.9726999999999 L 870.9453 678.0156 C 862.6465 674.5116999999999 858.7850999999999 664.9375 862.3066 656.6561999999999 C 865.8438 648.3573999999999 875.502 644.5654 883.665 648.0175999999999 L 961.2284999999999 680.9745999999999 C 969.5273 684.4774999999998 973.3866999999999 694.0683999999999 969.8671999999999 702.3505999999999 C 967.2305 708.5576 961.1934 712.2646 954.8672 712.2646 L 954.8672 712.2646 z" stroke-linecap="round" />
</g>
<g transform="matrix(0.79 0 0 0.79 294.19 435.64)"  >
<path style="stroke: none; stroke-width: 1; stroke-dasharray: none; stroke-linecap: butt; stroke-dashoffset: 0; stroke-linejoin: miter; stroke-miterlimit: 4; fill: rgb(255,255,255); fill-rule: nonzero; opacity: 1;" vector-effect="non-scaling-stroke"  transform=" translate(-194.75, -373.3)" d="M 210.2578 396.189 C 208.11520000000002 396.189 205.9556 395.7642 203.8979 394.88820000000004 L 172.8799 381.7173 C 164.5811 378.19730000000004 160.7207 368.6143 164.2407 360.33250000000004 C 167.7607 352.0425 177.4375 348.2246 185.5996 351.70210000000003 L 216.6182 364.88180000000006 C 224.917 368.39360000000005 228.7773 377.97610000000003 225.2568 386.25780000000003 C 222.6211 392.4565 216.584 396.189 210.2578 396.189 L 210.2578 396.189 z" stroke-linecap="round" />
</g>
<g transform="matrix(0.79 0 0 0.79 214.28 401.72)"  >
<path style="stroke: none; stroke-width: 1; stroke-dasharray: none; stroke-linecap: butt; stroke-dashoffset: 0; stroke-linejoin: miter; stroke-miterlimit: 4; fill: rgb(255,255,255); fill-rule: nonzero; opacity: 1;" vector-effect="non-scaling-stroke"  transform=" translate(-93.91, -330.51)" d="M 132.6953 363.2749 C 130.55270000000002 363.2749 128.39260000000002 362.8496 126.33500000000001 361.9824 L 48.77250000000001 329.0254 C 40.473600000000005 325.5137 36.61330000000001 315.9395 40.13380000000001 307.6494 C 43.65330000000001 299.3589 53.31300000000001 295.5498 61.492700000000006 299.019 L 139.0557 331.9756 C 147.3545 335.4873 151.2144 345.06149999999997 147.6943 353.3521 C 145.0586 359.5503 139.0215 363.2749 132.6953 363.2749 L 132.6953 363.2749 z" stroke-linecap="round" />
</g>
<g transform="matrix(0.79 0 0 0.79 787.46 437.8)"  >
<path style="stroke: none; stroke-width: 1; stroke-dasharray: none; stroke-linecap: butt; stroke-dashoffset: 0; stroke-linejoin: miter; stroke-miterlimit: 4; fill: rgb(255,255,255); fill-rule: nonzero; opacity: 1;" vector-effect="non-scaling-stroke"  transform=" translate(-817.5, -376.04)" d="M 801.8672 398.6465 C 795.4229 398.6465 789.3184 394.7949 786.75 388.4429 C 783.3828 380.0933 787.4131 370.604 795.7627 367.2285 L 827.0361 354.6021 C 835.3516000000001 351.2686 844.875 355.2651 848.2598 363.6147 C 851.6094 371.9644 847.5791 381.45360000000005 839.2295 384.8296 L 807.9727 397.45610000000005 C 805.9668 398.2554 803.8916 398.6465 801.8672 398.6465 L 801.8672 398.6465 z" stroke-linecap="round" />
</g>
<g transform="matrix(0.79 0 0 0.79 867.84 405.29)"  >
<path style="stroke: none; stroke-width: 1; stroke-dasharray: none; stroke-linecap: butt; stroke-dashoffset: 0; stroke-linejoin: miter; stroke-miterlimit: 4; fill: rgb(255,255,255); fill-rule: nonzero; opacity: 1;" vector-effect="non-scaling-stroke"  transform=" translate(-919.04, -335.02)" d="M 879.958 367.084 C 873.5292999999999 367.084 867.4082 363.2236 864.8398 356.8804 C 861.4726999999999 348.52250000000004 865.5195 339.0244 873.8534999999999 335.666 L 952.0273 304.1289 C 960.3438 300.7788 969.8671999999999 304.79249999999996 973.251 313.14209999999997 C 976.6016 321.5005 972.5703 330.998 964.2207 334.35639999999995 L 886.0625 365.8853 C 884.0566 366.6929 881.998 367.084 879.958 367.084 L 879.958 367.084 z" stroke-linecap="round" />
</g>
<g transform="matrix(0.79 0 0 0.79 292.42 637.83)"  >
<path style="stroke: none; stroke-width: 1; stroke-dasharray: none; stroke-linecap: butt; stroke-dashoffset: 0; stroke-linejoin: miter; stroke-miterlimit: 4; fill: rgb(255,255,255); fill-rule: nonzero; opacity: 1;" vector-effect="non-scaling-stroke"  transform=" translate(-192.51, -628.56)" d="M 176.8931 651.1807 C 170.4478 651.1807 164.3428 647.3203 161.792 640.9766 C 158.4082 632.6445 162.4385 623.1211 170.78810000000001 619.7538999999999 L 202.02730000000003 607.1356999999999 C 210.36040000000003 603.7685999999999 219.86620000000002 607.7821999999999 223.23340000000002 616.1317999999999 C 226.61720000000003 624.4813999999999 222.5869 633.9882999999999 214.2373 637.3555999999999 L 182.981 649.9901999999998 C 180.9912 650.7891 178.917 651.1807 176.8931 651.1807 L 176.8931 651.1807 z" stroke-linecap="round" />
</g>
<g transform="matrix(0.79 0 0 0.79 211.92 670.29)"  >
<path style="stroke: none; stroke-width: 1; stroke-dasharray: none; stroke-linecap: butt; stroke-dashoffset: 0; stroke-linejoin: miter; stroke-miterlimit: 4; fill: rgb(255,255,255); fill-rule: nonzero; opacity: 1;" vector-effect="non-scaling-stroke"  transform=" translate(-90.95, -669.58)" d="M 51.8672 701.6533 C 45.422399999999996 701.6533 39.30029999999999 697.7929999999999 36.7324 691.4491999999999 C 33.3823 683.0995999999999 37.4126 673.5936999999999 45.762699999999995 670.2266 L 123.9375 638.6816 C 132.2871 635.3311 141.7764 639.3447 145.1602 647.6943 C 148.5273 656.0439 144.4971 665.5332 136.1475 668.9004 L 57.9551 700.4629 C 55.9658 701.2617 53.8911 701.6533 51.8672 701.6533 L 51.8672 701.6533 z" stroke-linecap="round" />
</g>
<g transform="matrix(0.79 0 0 0.79 639.95 785.3)"  >
<path style="stroke: none; stroke-width: 1; stroke-dasharray: none; stroke-linecap: butt; stroke-dashoffset: 0; stroke-linejoin: miter; stroke-miterlimit: 4; fill: rgb(255,255,255); fill-rule: nonzero; opacity: 1;" vector-effect="non-scaling-stroke"  transform=" translate(-631.24, -814.79)" d="M 637.543 846.7285 C 631.08 846.7285 624.9922 842.8682 622.4237 836.5078000000001 L 609.8231000000001 805.2520000000001 C 606.456 796.9023000000001 610.4862 787.4131000000001 618.8358000000001 784.0459000000001 C 627.1688 780.6445000000001 636.6747 784.7090000000001 640.0585000000001 793.0762000000001 L 652.6601 824.3320000000001 C 656.0272000000001 832.6816000000001 651.9970000000001 842.1875000000001 643.6473000000001 845.5381000000001 C 641.6406 846.3545 639.583 846.7285 637.543 846.7285 L 637.543 846.7285 z" stroke-linecap="round" />
</g>
<g transform="matrix(0.79 0 0 0.79 672.44 865.72)"  >
<path style="stroke: none; stroke-width: 1; stroke-dasharray: none; stroke-linecap: butt; stroke-dashoffset: 0; stroke-linejoin: miter; stroke-miterlimit: 4; fill: rgb(255,255,255); fill-rule: nonzero; opacity: 1;" vector-effect="non-scaling-stroke"  transform=" translate(-672.29, -916.36)" d="M 688.083 971.7207 C 681.6542999999999 971.7207 675.5498 967.8593999999999 672.9824 961.5332 L 641.4023 883.4101999999999 C 638.0186 875.0429999999999 642.0487999999999 865.5536999999999 650.3983999999999 862.1864999999999 C 658.7313999999999 858.8192999999999 668.2207 862.8495999999999 671.6044999999999 871.1825999999999 L 703.1836 949.3065999999999 C 706.5684 957.6562999999999 702.5381 967.1454999999999 694.1875 970.5292999999999 C 692.1816 971.3291 690.123 971.7207 688.083 971.7207 L 688.083 971.7207 z" stroke-linecap="round" />
</g>
<g transform="matrix(0.79 0 0 0.79 439.95 290.28)"  >
<path style="stroke: none; stroke-width: 1; stroke-dasharray: none; stroke-linecap: butt; stroke-dashoffset: 0; stroke-linejoin: miter; stroke-miterlimit: 4; fill: rgb(255,255,255); fill-rule: nonzero; opacity: 1;" vector-effect="non-scaling-stroke"  transform=" translate(-378.74, -189.81)" d="M 385.0425 221.7197 C 378.6143 221.7197 372.4922 217.8594 369.9243 211.5161 L 357.32320000000004 180.3022 C 353.95610000000005 171.9609 357.9863 162.4551 366.33590000000004 159.0879 C 374.6519 155.74609999999998 384.19190000000003 159.75099999999998 387.55910000000006 168.1006 L 400.16020000000003 199.3062 C 403.5273 207.64749999999998 399.49710000000005 217.1538 391.14750000000004 220.5205 C 389.1577 221.3286 387.083 221.7197 385.0425 221.7197 L 385.0425 221.7197 z" stroke-linecap="round" />
</g>
<g transform="matrix(0.79 0 0 0.79 407.43 209.76)"  >
<path style="stroke: none; stroke-width: 1; stroke-dasharray: none; stroke-linecap: butt; stroke-dashoffset: 0; stroke-linejoin: miter; stroke-miterlimit: 4; fill: rgb(255,255,255); fill-rule: nonzero; opacity: 1;" vector-effect="non-scaling-stroke"  transform=" translate(-337.72, -88.22)" d="M 353.4966 143.604 C 347.0688 143.604 340.9468 139.75240000000002 338.3789 133.4009 L 306.8164 55.23440000000001 C 303.44919999999996 46.893100000000004 307.4795 37.39550000000001 315.8291 34.02830000000001 C 324.1621 30.66940000000001 333.668 34.67430000000001 337.05219999999997 43.032700000000006 L 368.61469999999997 121.1992 C 371.9819 129.5488 367.95169999999996 139.03810000000001 359.60159999999996 142.4136 C 357.5952 143.2129 355.5376 143.604 353.4966 143.604 L 353.4966 143.604 z" stroke-linecap="round" />
</g>
</svg>