<?xml version="1.0" encoding="utf-8"?>
<!-- Generator: Adobe Illustrator 24.3.0, SVG Export Plug-In . SVG Version: 6.00 Build 0)  -->
<svg version="1.1" id="Layer_1" xmlns="http://www.w3.org/2000/svg" xmlns:xlink="http://www.w3.org/1999/xlink" x="0px" y="0px"
	 viewBox="0 0 409.6 409.6" style="enable-background:new 0 0 409.6 409.6;" xml:space="preserve">
<style type="text/css">
	.st0{fill:#FDFDFD;}
	.st1{fill:#596367;}
	.st2{fill:#3F4B51;}
	.st3{fill:#354147;}
	.st4{fill:#455157;}
	.st5{fill:#525C61;}
	.st6{fill:#4C565C;}
	.st7{fill:#E8E8E8;}
	.st8{fill:#2F90E6;}
	.st9{fill:#2A8DE5;}
	.st10{fill:#E6E6E6;}
	.st11{fill:#2488E0;}
	.st12{fill:#2887DA;}
	.st13{fill:#3795E7;}
	.st14{fill:#2F85D1;}
	.st15{fill:#3C97E7;}
</style>
<g>
	<g>
		<path class="st0" d="M0.08,188.44c0-61.7,0.02-123.4-0.07-185.1C0.01,0.74,0.35,0,3.21,0c134.43,0.1,268.87,0.08,403.3,0.07
			c1.84,0,3.1-0.35,3.09,2.61c-0.12,135.5-0.1,271.01-0.1,406.51c0,0.11-0.04,0.22-0.06,0.34c-63.29,0-126.59,0-189.88,0
			c0.74-1.41,2.21-0.39,3.2-0.97c22.02-1.66,43.04-7.36,63.25-16.09c19.53-8.44,37.34-19.71,53.18-33.93
			c42.93-38.55,66.19-86.7,69.29-144.31c1.61-30.01-3.67-59.02-15.19-86.8c-8.61-20.76-20.11-39.77-35.29-56.44
			c-10.07-12.06-21.63-22.48-34.51-31.47c-18.17-13.5-38.25-23.19-59.83-29.8c-14.1-4.32-28.49-7.31-43.29-7.93
			c-4.96-1.04-9.99-0.84-15.01-0.86C192.13,0.86,179,1.77,166.07,4.79c-18.87,3.06-36.65,9.34-53.55,18.18
			c-0.5,0.18-1.03,0.29-1.49,0.54C50.55,56.41,14.07,106.57,2.37,174.58C1.57,179.19,1.9,184,0.08,188.44z"/>
		<path class="st0" d="M187.63,409.52c-61.45,0-122.91-0.02-184.36,0.08c-2.73,0-3.27-0.54-3.27-3.27
			c0.1-61.46,0.08-122.91,0.08-184.37c1.31,0.61,0.69,1.83,0.85,2.78c0.83,4.92,0.8,9.97,2.33,14.78
			c0.42,6.64,2.29,12.99,4.03,19.35c5.11,18.61,12.39,36.29,22.88,52.57c4.41,8.03,9.87,15.35,15.66,22.4
			c9.43,11.47,19.63,22.19,31.65,31.03c19.44,16.12,41.38,27.56,65.46,34.98c10.01,3.61,20.41,5.55,30.86,7.38
			C178.4,408.04,183.21,407.65,187.63,409.52z"/>
		<path class="st1" d="M3.26,239.53c-1.53-4.81-1.5-9.86-2.33-14.78c-0.16-0.95,0.46-2.17-0.85-2.78c0-11.17,0-22.35,0-33.52
			c1.82-4.44,1.5-9.25,2.29-13.86c11.7-68.01,48.18-118.17,108.66-151.07c0.46-0.25,0.99-0.36,1.49-0.54
			c-0.89,5.53-3.79,10.24-6.19,15.15c-1.38,2.84-2.79,5.66-2.52,8.96c-7.05,5.23-14.71,9.63-21.3,15.47
			c-7.72,6.85-14.79,14.36-21.39,22.26c-24.13,28.85-38.41,61.98-42.81,99.38c-1.36,11.52-0.97,23.04-0.8,34.58
			c-1.64-0.07-3.16-0.04-3.99,1.83c-2.04,4.59-4.28,9.1-6.22,13.74C6.41,236.51,5.31,238.34,3.26,239.53z"/>
		<path class="st2" d="M187.63,409.52c-4.42-1.87-9.23-1.48-13.83-2.29c-10.44-1.83-20.85-3.77-30.86-7.38
			c1.11-5.68,3.94-10.54,7.21-15.2c0.77,0.15,1.56,0.26,2.32,0.47c14.91,4.08,29.99,7.02,45.54,6.89c3.27,0.38,6.52,0.74,9.84,0.48
			c7.08-0.56,14.18-0.95,21.27-1.41c0.15,1.37-0.59,2.49-0.97,3.73c-1.43,4.73-4.94,8.63-5.4,13.73c-0.99,0.58-2.46-0.43-3.2,0.97
			C208.91,409.52,198.27,409.52,187.63,409.52z"/>
		<path class="st3" d="M222.75,408.55c0.46-5.1,3.97-9,5.4-13.73c0.37-1.24,1.12-2.36,0.97-3.73c1.43-0.26,2.86-0.53,4.3-0.79
			c15.32-2.78,30.35-6.52,44.5-13.22c4.26-1.18,8.05-3.44,11.92-5.45c19.98-10.38,37.64-23.78,52.75-40.54
			c1.99-2.2,1.54-3.25-0.76-4.36c-3.47-1.67-6.91-3.39-10.4-5.01c-10.94-5.09-21.92-10.07-33.46-13.69
			c-14.56-5.67-29.63-9.56-44.89-12.78c1.76-5.63,4.05-10.99,8.08-15.44c8.02,1,15.67,3.62,23.37,5.83
			c23.78,6.84,46.63,16.05,68.34,27.97c2.34,1.29,3.31,0.81,4.67-1.19c30.87-45.26,40.91-94.73,29.46-148.28
			c-6.15-28.75-18.83-54.56-37.73-77.2c-0.22-0.47-0.44-0.93-0.66-1.4c1.82-0.73,1.92-2.59,2.76-4c2.11-3.57,2.34-8.34,6.59-10.56
			c15.18,16.68,26.68,35.69,35.29,56.44c11.52,27.78,16.81,56.79,15.19,86.8c-3.1,57.6-26.35,105.76-69.29,144.31
			c-15.84,14.22-33.65,25.48-53.18,33.93C265.8,401.19,244.78,406.89,222.75,408.55z"/>
		<path class="st4" d="M220.35,1.77c14.8,0.62,29.19,3.62,43.29,7.93c21.58,6.61,41.66,16.3,59.83,29.8
			c-3.2,4.82-5.46,10.04-6.7,15.7c-1.11-0.71-2.25-1.37-3.32-2.13c-15.3-10.93-31.84-19.43-49.66-25.46
			c-16.18-5.48-32.82-8.43-49.82-9.59c-0.2-1.65,0.56-3.02,1.21-4.46C216.96,9.66,218.64,5.71,220.35,1.77z"/>
		<path class="st5" d="M103.81,47.08c-0.27-3.3,1.14-6.12,2.52-8.96c2.39-4.91,5.3-9.62,6.19-15.15
			c16.91-8.84,34.68-15.12,53.55-18.18c-1.86,4.03-3.52,8.17-5.67,12.04c-1.38,2.49-1.26,4.25,0.96,5.92
			C140.94,27.92,121.73,35.97,103.81,47.08z"/>
		<path class="st6" d="M161.37,22.75c-2.21-1.67-2.33-3.43-0.96-5.92c2.14-3.87,3.8-8.01,5.67-12.04
			c12.92-3.02,26.05-3.93,39.27-3.88c5.01,0.02,10.05-0.18,15.01,0.86c-1.72,3.94-3.4,7.89-5.17,11.8c-0.65,1.44-1.42,2.8-1.21,4.46
			C196.25,17.51,178.69,18.84,161.37,22.75z"/>
		<path class="st2" d="M316.77,55.21c1.24-5.66,3.5-10.88,6.7-15.7c12.87,8.99,24.44,19.41,34.51,31.47
			c-4.25,2.22-4.48,6.99-6.59,10.56c-0.84,1.42-0.94,3.28-2.76,4C338.87,74.53,328.3,64.37,316.77,55.21z"/>
		<path class="st6" d="M77.47,364.88c-12.02-8.84-22.22-19.56-31.65-31.03c-5.79-7.05-11.24-14.37-15.66-22.4
			c3.57-3.17,4.7-7.72,6.61-11.81c0.87-1.86,1.46-3.73,4.04-3.46c3.36,5.22,6.88,10.35,10.01,15.71c1.7,2.92,3.06,2.78,5.87,1.27
			c17.86-9.61,36.4-17.72,55.8-23.75c0.24,1.62-0.03,3.11-0.76,4.6c-1.79,3.67-3.51,7.39-5.17,11.12c-0.53,1.2-1.99,2.44-0.29,3.85
			c-0.78,0.47-1.5,1.08-2.34,1.39c-11.16,4.16-22.06,8.92-32.64,14.38c-7.98,4.11-8.97,2.24-1.56,10.17
			c4.51,4.82,9.43,9.25,14.17,13.85c-0.59,1.46-1.1,2.96-1.78,4.38C80.31,356.97,78.13,360.62,77.47,364.88z"/>
		<path class="st5" d="M40.81,296.18c-2.58-0.28-3.17,1.6-4.04,3.46c-1.91,4.09-3.04,8.64-6.61,11.81
			c-10.49-16.28-17.77-33.96-22.88-52.57c-1.74-6.35-3.61-12.71-4.03-19.35c2.05-1.18,3.15-3.02,4.05-5.19
			c1.94-4.64,4.18-9.14,6.22-13.74c0.83-1.87,2.35-1.89,3.99-1.83c0.61,11.87,3.19,23.38,6.14,34.84
			C27.5,268.56,33.72,282.55,40.81,296.18z"/>
		<path class="st4" d="M77.47,364.88c0.66-4.26,2.83-7.92,4.65-11.72c0.68-1.42,1.19-2.92,1.78-4.38c0.69,0.37,1.48,0.63,2.06,1.13
			c6.9,5.91,14.16,11.26,22.11,15.73c12.45,6.99,24.98,13.71,38.86,17.5c1.07,0.51,2.15,1.02,3.22,1.52
			c-3.26,4.66-6.09,9.52-7.21,15.2C118.85,392.44,96.91,381,77.47,364.88z"/>
		<path class="st7" d="M40.81,296.18c-7.1-13.63-13.31-27.62-17.16-42.56c-2.95-11.45-5.54-22.97-6.14-34.84
			c-0.17-11.54-0.55-23.05,0.8-34.58c4.4-37.41,18.68-70.53,42.81-99.38c6.61-7.9,13.68-15.41,21.39-22.26
			c6.59-5.85,14.25-10.25,21.3-15.47c17.91-11.12,37.13-19.16,57.55-24.34c17.33-3.91,34.88-5.24,52.61-4.72
			c17,1.16,33.64,4.11,49.82,9.59c17.82,6.03,34.36,14.53,49.66,25.46c1.07,0.76,2.21,1.42,3.32,2.13
			c11.52,9.16,22.1,19.32,31.86,30.34c0.22,0.47,0.44,0.93,0.66,1.4c-1.46,0.09-2.42,0.8-3.05,2.15c-3.78,8.16-7.6,16.29-11.4,24.44
			c-9.11,19.53-18.21,39.06-27.34,58.57c-0.6,1.27-0.99,2.86-2.92,2.76c0.27-1.97,0.56-3.93,0.81-5.9
			c3.84-29.31-3.09-55.66-21.65-78.83c-0.4-0.97-0.98-1.78-1.95-2.26c-0.25-0.27-0.51-0.55-0.76-0.82
			c-13.85-16.24-31.17-26.8-51.9-31.79c-21.82-5.74-43.09-3.94-63.85,4.71c-0.26,0.03-0.55-0.01-0.78,0.09
			c-39.6,16.53-65.15,58.02-61.99,100.85c0.91,12.37,3.44,24.39,9.24,35.52c7.08,16.47,18.08,29.73,32.72,40.01
			c11.85,9.17,25.19,14.93,39.91,17.58c21.45,4.65,42.1,1.87,62.05-6.89c15.37-6.75,27.86-17.24,38.55-30.02
			c0.9,1.28,0.42,2.44-0.17,3.7c-6.83,14.63-13.73,29.23-20.35,43.95c-2.1,4.67-5.01,9.04-5.9,14.22
			c-14.04-2.71-28.15-4.78-42.46-5.34c-11.65-0.46-23.27-0.52-34.85,1.01c-23.6,1.72-46.4,7.18-68.75,14.75
			c-19.4,6.03-37.94,14.14-55.8,23.75c-2.8,1.51-4.16,1.64-5.87-1.27C47.7,306.53,44.17,301.4,40.81,296.18z"/>
		<path class="st8" d="M150.15,384.66c-1.07-0.51-2.15-1.02-3.22-1.52c3.47-7.73,6.86-15.51,10.44-23.19
			c9.98-21.4,20.03-42.78,30.09-64.14c0.7-1.49,1.14-2.96,0.9-4.6c3.17-0.97,6.41-0.59,9.63-0.49c0.25,0.59,0.34,1.34,0.76,1.76
			c8.77,8.72,17.58,17.39,26.39,26.08c1.07,1.33,2.13,2.66,3.2,3.99c0.11,1.49-0.23,2.85-0.87,4.21
			c-9.49,20.23-18.93,40.48-28.42,60.71c-0.69,1.48-1.18,2.94-1.03,4.57c-15.55,0.13-30.63-2.81-45.54-6.89
			C151.7,384.92,150.92,384.81,150.15,384.66z"/>
		<path class="st9" d="M198,392.02c-0.15-1.64,0.33-3.09,1.03-4.57c9.49-20.23,18.94-40.48,28.42-60.71
			c0.64-1.36,0.98-2.72,0.87-4.21c1.65,1.52,3.35,3,4.95,4.57c7.67,7.51,15.32,15.04,22.98,22.57c5.81,6.78,12.7,12.54,18.01,19.82
			c1.75,2.41,3.46,4.56,3.64,7.59c-14.15,6.7-29.18,10.44-44.5,13.22c-1.43,0.26-2.86,0.53-4.3,0.79
			c-7.09,0.46-14.19,0.85-21.27,1.41C204.53,392.76,201.27,392.4,198,392.02z"/>
		<path class="st10" d="M304.58,174.87c1.94,0.1,2.33-1.49,2.92-2.76c9.12-19.52,18.23-39.05,27.34-58.57
			c3.8-8.15,7.63-16.28,11.4-24.44c0.63-1.35,1.59-2.07,3.05-2.15c18.9,22.64,31.58,48.45,37.73,77.2
			c11.45,53.55,1.41,103.03-29.46,148.28c-1.37,2-2.33,2.48-4.67,1.19c-21.71-11.92-44.56-21.14-68.34-27.97
			c-7.7-2.21-15.35-4.83-23.37-5.83c-0.87-0.27-1.74-0.55-2.61-0.83c0.9-5.18,3.8-9.55,5.9-14.22
			c6.62-14.72,13.52-29.32,20.35-43.95c0.59-1.26,1.07-2.42,0.17-3.7C294.45,204.4,301,190.33,304.58,174.87z"/>
		<path class="st11" d="M277.92,377.08c-0.19-3.04-1.89-5.18-3.64-7.59c-5.31-7.28-12.2-13.05-18.01-19.82
			c2.09-0.26,4.23,1.94,6.33-0.32c4.85-5.21,10.61-9.63,14.43-15.74c5.9-9.43,13.61-17.34,20.95-25.57
			c11.54,3.62,22.52,8.6,33.46,13.69c3.49,1.62,6.93,3.34,10.4,5.01c2.3,1.11,2.75,2.15,0.76,4.36
			c-15.11,16.76-32.78,30.15-52.75,40.54C285.97,373.64,282.18,375.9,277.92,377.08z"/>
		<path class="st12" d="M297.98,308.04c-7.35,8.23-15.06,16.14-20.95,25.57c-3.82,6.12-9.58,10.53-14.43,15.74
			c-2.1,2.25-4.23,0.06-6.33,0.32c-7.66-7.53-15.31-15.06-22.98-22.57c-1.6-1.57-3.3-3.05-4.95-4.57c-1.07-1.33-2.13-2.66-3.19-3.99
			c6.61-5.07,11.41-11.69,15.64-18.73c1.18-1.97,3.89-3.06,3.52-5.94c2.93,0.46,5.86,0.92,8.79,1.39
			C268.35,298.48,283.42,302.37,297.98,308.04z"/>
		<path class="st2" d="M253.09,295.26c-2.93-0.46-5.86-0.92-8.79-1.39c-15.34-2.52-30.74-4.06-46.31-3.17
			c-3.22-0.09-6.46-0.48-9.63,0.49c-4.49,0.37-8.99,0.73-13.48,1.1c-0.2-2.57,1.62-4.39,2.41-6.6c1.32-3.68,3.92-6.9,3.96-11.04
			c11.58-1.53,23.2-1.47,34.85-1.01c14.32,0.56,28.43,2.64,42.46,5.34c0.87,0.28,1.74,0.55,2.61,0.83
			C257.14,284.27,254.85,289.62,253.09,295.26z"/>
		<path class="st13" d="M174.88,292.3c4.49-0.37,8.99-0.73,13.48-1.1c0.24,1.64-0.2,3.11-0.9,4.6
			c-10.06,21.37-20.11,42.74-30.09,64.14c-3.58,7.68-6.97,15.46-10.44,23.19c-13.87-3.79-26.41-10.51-38.86-17.5
			c-7.95-4.46-15.21-9.82-22.11-15.73c-0.58-0.5-1.37-0.76-2.06-1.13c-4.74-4.6-9.66-9.03-14.17-13.85
			c-7.41-7.93-6.41-6.06,1.56-10.17c10.58-5.46,21.48-10.22,32.64-14.38c0.84-0.31,1.56-0.92,2.34-1.39
			c0.77-0.17,1.56-0.26,2.3-0.51c13.29-4.44,26.58-8.84,40.34-11.71C157.52,294.96,166.23,293.84,174.88,292.3z"/>
		<path class="st4" d="M174.88,292.3c-8.65,1.54-17.36,2.67-25.97,4.47c-13.76,2.88-27.05,7.27-40.34,11.71
			c-0.74,0.25-1.53,0.34-2.3,0.51c-1.7-1.41-0.24-2.65,0.29-3.85c1.66-3.74,3.38-7.45,5.17-11.12c0.73-1.49,1-2.99,0.76-4.6
			c22.35-7.57,45.15-13.03,68.75-14.75c-0.03,4.14-2.64,7.36-3.96,11.04C176.5,287.9,174.68,289.73,174.88,292.3z"/>
		<path class="st2" d="M304.58,174.87c-3.58,15.45-10.13,29.53-19.6,42.25c-10.69,12.78-23.18,23.27-38.55,30.02
			c-19.95,8.76-40.6,11.53-62.05,6.89c1.11-5.66,4.31-10.45,6.51-15.66c6.2,0.24,12.32,1.03,18.61,0.59
			c26.21-1.85,47.38-13.13,62.97-34.01c16.06-21.51,20.5-45.71,14.28-71.9c-2.37-9.97-7.11-18.78-12.18-27.5
			c0.85-2.29-2.04-3.96-1.27-5.96c1.52-3.95,3.49-7.72,5.29-11.56c0.49-1.05,1.51-0.91,2.43-0.96c0.25,0.27,0.51,0.55,0.76,0.82
			c-0.04,1.34,0.17,2.47,1.95,2.26c18.56,23.16,25.49,49.51,21.65,78.83C305.13,170.94,304.85,172.91,304.58,174.87z"/>
		<path class="st5" d="M111.76,196.44c-5.8-11.13-8.33-23.15-9.24-35.52c-3.16-42.83,22.39-84.32,61.99-100.85
			c0.23-0.1,0.52-0.06,0.78-0.09c-0.05,3.08-2.32,5.28-3.2,8.01c-1.75,5.49-5.97,10.01-6.35,16.04
			c-12.48,9.44-22.57,20.83-28.95,35.29c-5.38,12.19-7.78,24.88-7.26,38.24c0.27,6.96,1.7,13.65,2.92,20.42
			c-1.25,0.01-1.87,0.83-2.34,1.84c-1.46,3.11-2.76,6.31-4.44,9.31C114.31,191.54,114.38,194.72,111.76,196.44z"/>
		<path class="st6" d="M155.74,84.03c0.37-6.03,4.59-10.54,6.35-16.04c0.87-2.74,3.15-4.93,3.2-8.01
			c20.76-8.65,42.03-10.44,63.85-4.71c0.24,1.95-0.71,3.53-1.46,5.22c-1.53,3.45-3.52,6.73-4.13,10.54
			c-3.46-0.47-6.92-0.94-10.38-1.41c-10.78-1.08-21.39-0.24-31.88,2.59C172.08,74.71,163.85,79.22,155.74,84.03z"/>
		<path class="st4" d="M223.55,71.04c0.61-3.81,2.6-7.09,4.13-10.54c0.75-1.69,1.7-3.27,1.46-5.22
			c20.73,4.99,38.06,15.55,51.9,31.79c-0.92,0.05-1.94-0.09-2.43,0.96c-1.8,3.84-3.77,7.61-5.29,11.56c-0.77,2,2.12,3.67,1.27,5.95
			c-1.25-1.51-2.48-3.04-3.74-4.54c-5.86-6.94-12.08-13.49-20.14-17.97C242.53,77.04,233.14,73.82,223.55,71.04z"/>
		<path class="st6" d="M111.76,196.44c2.63-1.72,2.56-4.9,3.91-7.32c1.68-2.99,2.98-6.19,4.44-9.31c0.47-1.01,1.09-1.83,2.34-1.84
			c0.93,2.18,1.87,4.36,2.8,6.53c0.23,2.27,1.16,4.31,2.13,6.33c5.96,12.35,14.83,22.33,25.22,31.09c-2.21,0.04-2.66,1.89-3.33,3.38
			c-1.66,3.69-3.21,7.42-4.8,11.14C129.84,226.17,118.83,212.91,111.76,196.44z"/>
		<path class="st4" d="M144.47,236.45c1.59-3.72,3.14-7.45,4.8-11.14c0.67-1.5,1.12-3.35,3.33-3.38
			c11.51,8.41,24.37,13.66,38.29,16.44c-2.21,5.2-5.4,10-6.51,15.66C169.67,251.38,156.32,245.62,144.47,236.45z"/>
		<path class="st4" d="M283.75,90.15c-1.77,0.21-1.98-0.92-1.95-2.26C282.77,88.36,283.35,89.18,283.75,90.15z"/>
		<path class="st14" d="M197.99,290.7c15.57-0.89,30.97,0.65,46.31,3.17c0.37,2.88-2.34,3.97-3.52,5.94
			c-4.23,7.04-9.02,13.66-15.64,18.73c-8.8-8.69-17.61-17.36-26.39-26.08C198.33,292.04,198.23,291.3,197.99,290.7z"/>
		<path class="st14" d="M190.9,238.37c-13.92-2.78-26.78-8.03-38.29-16.44c-10.39-8.76-19.26-18.74-25.22-31.09
			c-0.97-2.02-1.9-4.06-2.13-6.33c1.45-0.28,2.45,0.59,3.63,1.22c8.2,4.35,16.61,8.14,26.01,9.1c0.32,0.23,0.61,0.61,0.95,0.66
			c17,2.54,33.59,0.93,49.23-6.3c23.05-10.65,38.78-28.14,46.37-52.47c3.48-11.15,5.02-22.56,3.38-34.38
			c-0.91-6.58-3.01-12.82-4.14-19.31c8.06,4.48,14.28,11.02,20.14,17.97c1.26,1.5,2.5,3.02,3.74,4.54
			c5.07,8.72,9.81,17.53,12.18,27.5c6.21,26.2,1.77,50.4-14.28,71.9c-15.59,20.89-36.76,32.17-62.97,34.01
			C203.22,239.4,197.09,238.61,190.9,238.37z"/>
		<path class="st15" d="M154.9,194.83c-9.39-0.96-17.81-4.75-26.01-9.1c-1.18-0.63-2.19-1.5-3.63-1.22
			c-0.94-2.18-1.87-4.36-2.81-6.53c-1.22-6.77-2.65-13.46-2.92-20.42c-0.51-13.37,1.88-26.05,7.26-38.24
			c6.38-14.45,16.47-25.84,28.95-35.29c8.11-4.81,16.34-9.32,25.55-11.81c10.49-2.84,21.09-3.67,31.88-2.59
			c-0.01,1.91-0.75,3.63-1.53,5.3c-12.38,26.41-24.81,52.8-37.17,79.22c-4.1,8.76-7.81,17.71-12.12,26.36
			C159.94,185.32,158.5,190.65,154.9,194.83z"/>
		<path class="st13" d="M154.9,194.83c3.6-4.18,5.04-9.52,7.44-14.32c4.31-8.65,8.03-17.6,12.12-26.36
			c12.36-26.42,24.79-52.81,37.17-79.22c0.78-1.67,1.52-3.39,1.53-5.3c3.46,0.47,6.92,0.94,10.38,1.41c9.59,2.78,18.99,6,27.15,12
			c1.13,6.48,3.23,12.73,4.14,19.31c1.64,11.82,0.1,23.24-3.38,34.38c-7.6,24.33-23.33,41.83-46.37,52.47
			c-15.65,7.23-32.23,8.84-49.23,6.3C155.51,195.45,155.22,195.06,154.9,194.83z"/>
	</g>
</g>
</svg>
